<svg width="918" height="200" viewBox="0 0 918 200" fill="none" xmlns="http://www.w3.org/2000/svg">
<ellipse cx="633.5" cy="73.5" rx="6.5" ry="5.5" fill="#43EACC"/>
<path d="M620 9V28.6875L634 36V21.375" stroke="#3092D9"/>
<path d="M634 37V68" stroke="#3092D9"/>
<path d="M635 48L648 42.8276V33" stroke="#3092D9"/>
<ellipse cx="635" cy="13.5" rx="6" ry="4.5" fill="#43EACC"/>
<ellipse cx="620" cy="4.5" rx="6" ry="4.5" fill="#43EACC"/>
<ellipse cx="647.5" cy="27.5" rx="5.5" ry="4.5" fill="#3092D9"/>
<path d="M5 192L49.7541 92L96 192" stroke="#34D9BB" stroke-width="10"/>
<path d="M393 194L437.754 94L484 194" stroke="#34D9BB" stroke-width="10"/>
<path d="M118 86V192H174" stroke="#34D9BB" stroke-width="10"/>
<path d="M174 92L284 92" stroke="#34D9BB" stroke-width="10"/>
<path d="M231 92V194" stroke="#34D9BB" stroke-width="10"/>
<path d="M305 92L342 92" stroke="#34D9BB" stroke-width="10"/>
<path d="M342 92C391.172 95.1644 388.813 145.822 342 147" stroke="#34D9BB" stroke-width="10"/>
<path d="M342 147H305" stroke="#34D9BB" stroke-width="10"/>
<path d="M313 147C350.463 147.278 356.421 163.307 366 193" stroke="#34D9BB" stroke-width="10"/>
<path d="M500 86H543" stroke="#34D9BB" stroke-width="10"/>
<path d="M541 86C619.505 102.17 600.515 188.116 541 193" stroke="#34D9BB" stroke-width="10"/>
<path d="M543 193H500" stroke="#34D9BB" stroke-width="10"/>
<path d="M633 84V195" stroke="#34D9BB" stroke-width="10"/>
<path d="M773 93.4823C738.95 62.8132 683.777 82.2565 681.683 93.4823C665.891 126.614 766.41 142 766.41 142" stroke="#34D9BB" stroke-width="10"/>
<path d="M695 176.489C729.05 210.933 784.223 189.097 786.317 176.489C802.109 139.28 701.59 122 701.59 122" stroke="#34D9BB" stroke-width="10"/>
<path d="M903 93.4823C868.95 62.8132 813.777 82.2565 811.683 93.4823C795.891 126.614 896.41 142 896.41 142" stroke="#34D9BB" stroke-width="10"/>
<path d="M820 173.489C854.05 207.933 909.223 186.097 911.317 173.489C927.109 136.28 826.59 119 826.59 119" stroke="#34D9BB" stroke-width="10"/>
</svg>
